<mxfile host="app.diagrams.net" agent="Mozilla/5.0 (Windows NT 10.0; Win64; x64) AppleWebKit/537.36 (KHTML, like Gecko) Chrome/138.0.0.0 Safari/537.36" version="28.0.7">
  <diagram name="PÃ¡gina-1" id="wwDofGfb2p0JImX30tLl">
    <mxGraphModel dx="314" dy="170" grid="1" gridSize="10" guides="1" tooltips="1" connect="1" arrows="1" fold="1" page="1" pageScale="1" pageWidth="827" pageHeight="1169" math="0" shadow="0">
      <root>
        <mxCell id="0" />
        <mxCell id="1" parent="0" />
        <mxCell id="yCrrRUYa-Zq3f73UhCOz-10" value="" style="rounded=0;whiteSpace=wrap;html=1;" parent="1" vertex="1">
          <mxGeometry x="30" y="290" width="780" height="340" as="geometry" />
        </mxCell>
        <mxCell id="yCrrRUYa-Zq3f73UhCOz-12" value="" style="rounded=1;whiteSpace=wrap;html=1;fillColor=#1ba1e2;fontColor=#ffffff;strokeColor=#006EAF;" parent="1" vertex="1">
          <mxGeometry x="140" y="300" width="660" height="310" as="geometry" />
        </mxCell>
        <mxCell id="yCrrRUYa-Zq3f73UhCOz-22" value="" style="rounded=1;whiteSpace=wrap;html=1;" parent="1" vertex="1">
          <mxGeometry x="330" y="350" width="440" height="250" as="geometry" />
        </mxCell>
        <mxCell id="yCrrRUYa-Zq3f73UhCOz-7" value="" style="ellipse;shape=cloud;whiteSpace=wrap;html=1;verticalAlign=top;" parent="1" vertex="1">
          <mxGeometry width="400" height="270" as="geometry" />
        </mxCell>
        <mxCell id="yCrrRUYa-Zq3f73UhCOz-3" value="Imagem docker" style="swimlane;fontStyle=0;childLayout=stackLayout;horizontal=1;startSize=30;horizontalStack=0;resizeParent=1;resizeParentMax=0;resizeLast=0;collapsible=1;marginBottom=0;whiteSpace=wrap;html=1;" parent="1" vertex="1">
          <mxGeometry x="130" y="80" width="140" height="130" as="geometry" />
        </mxCell>
        <mxCell id="yCrrRUYa-Zq3f73UhCOz-2" value="java-app.jar" style="shape=note;whiteSpace=wrap;html=1;backgroundOutline=1;darkOpacity=0.05;fillColor=light-dark(#FFFFFF,#001933);" parent="yCrrRUYa-Zq3f73UhCOz-3" vertex="1">
          <mxGeometry y="30" width="140" height="100" as="geometry" />
        </mxCell>
        <mxCell id="yCrrRUYa-Zq3f73UhCOz-9" value="docker hub - maycon" style="text;html=1;align=center;verticalAlign=middle;whiteSpace=wrap;rounded=0;" parent="1" vertex="1">
          <mxGeometry x="124" y="30" width="110" height="50" as="geometry" />
        </mxCell>
        <mxCell id="yCrrRUYa-Zq3f73UhCOz-11" value="&lt;font style=&quot;font-size: 15px;&quot;&gt;maquina local&lt;/font&gt;" style="text;html=1;align=center;verticalAlign=middle;whiteSpace=wrap;rounded=0;" parent="1" vertex="1">
          <mxGeometry x="40" y="300" width="60" height="30" as="geometry" />
        </mxCell>
        <mxCell id="yCrrRUYa-Zq3f73UhCOz-13" value="Cluster" style="text;html=1;align=center;verticalAlign=middle;whiteSpace=wrap;rounded=0;" parent="1" vertex="1">
          <mxGeometry x="160" y="300" width="60" height="30" as="geometry" />
        </mxCell>
        <mxCell id="yCrrRUYa-Zq3f73UhCOz-14" value="" style="rounded=1;whiteSpace=wrap;html=1;" parent="1" vertex="1">
          <mxGeometry x="160" y="340" width="110" height="230" as="geometry" />
        </mxCell>
        <mxCell id="yCrrRUYa-Zq3f73UhCOz-15" value="control-plane" style="text;html=1;align=center;verticalAlign=middle;whiteSpace=wrap;rounded=0;" parent="1" vertex="1">
          <mxGeometry x="170" y="340" width="90" height="30" as="geometry" />
        </mxCell>
        <mxCell id="yCrrRUYa-Zq3f73UhCOz-41" style="edgeStyle=orthogonalEdgeStyle;rounded=0;orthogonalLoop=1;jettySize=auto;html=1;exitX=1;exitY=0.5;exitDx=0;exitDy=0;" parent="1" source="yCrrRUYa-Zq3f73UhCOz-14" target="yCrrRUYa-Zq3f73UhCOz-26" edge="1">
          <mxGeometry relative="1" as="geometry">
            <mxPoint x="249.9999999999999" y="400.0344827586207" as="sourcePoint" />
          </mxGeometry>
        </mxCell>
        <mxCell id="yCrrRUYa-Zq3f73UhCOz-20" style="edgeStyle=orthogonalEdgeStyle;rounded=0;orthogonalLoop=1;jettySize=auto;html=1;entryX=0;entryY=0.5;entryDx=0;entryDy=0;" parent="1" source="yCrrRUYa-Zq3f73UhCOz-19" target="yCrrRUYa-Zq3f73UhCOz-14" edge="1">
          <mxGeometry relative="1" as="geometry">
            <mxPoint x="169.9999999999999" y="400" as="targetPoint" />
          </mxGeometry>
        </mxCell>
        <mxCell id="yCrrRUYa-Zq3f73UhCOz-21" value="GET" style="edgeLabel;html=1;align=center;verticalAlign=middle;resizable=0;points=[];" parent="yCrrRUYa-Zq3f73UhCOz-20" vertex="1" connectable="0">
          <mxGeometry x="0.0635" y="2" relative="1" as="geometry">
            <mxPoint x="-12" y="-13" as="offset" />
          </mxGeometry>
        </mxCell>
        <mxCell id="yCrrRUYa-Zq3f73UhCOz-19" value="Actor" style="shape=umlActor;verticalLabelPosition=bottom;verticalAlign=top;html=1;outlineConnect=0;" parent="1" vertex="1">
          <mxGeometry x="55" y="425" width="30" height="60" as="geometry" />
        </mxCell>
        <mxCell id="yCrrRUYa-Zq3f73UhCOz-23" value="worker 1" style="text;html=1;align=center;verticalAlign=middle;whiteSpace=wrap;rounded=0;" parent="1" vertex="1">
          <mxGeometry x="340" y="350" width="90" height="30" as="geometry" />
        </mxCell>
        <mxCell id="yCrrRUYa-Zq3f73UhCOz-26" value="service&lt;div&gt;worker -&amp;gt;&amp;nbsp;30080&amp;nbsp;&amp;nbsp;&lt;/div&gt;" style="rounded=0;whiteSpace=wrap;html=1;" parent="1" vertex="1">
          <mxGeometry x="350" y="385" width="100" height="110" as="geometry" />
        </mxCell>
        <mxCell id="yCrrRUYa-Zq3f73UhCOz-27" value="deployment" style="rounded=0;whiteSpace=wrap;html=1;verticalAlign=top;" parent="1" vertex="1">
          <mxGeometry x="610" y="370" width="150" height="210" as="geometry" />
        </mxCell>
        <mxCell id="yCrrRUYa-Zq3f73UhCOz-28" value="secret" style="rounded=0;whiteSpace=wrap;html=1;" parent="1" vertex="1">
          <mxGeometry x="365" y="560" width="70" height="30" as="geometry" />
        </mxCell>
        <mxCell id="yCrrRUYa-Zq3f73UhCOz-29" value="configmap" style="rounded=0;whiteSpace=wrap;html=1;" parent="1" vertex="1">
          <mxGeometry x="525" y="560" width="70" height="30" as="geometry" />
        </mxCell>
        <mxCell id="yCrrRUYa-Zq3f73UhCOz-30" value="HPA" style="rounded=0;whiteSpace=wrap;html=1;" parent="1" vertex="1">
          <mxGeometry x="445" y="560" width="70" height="30" as="geometry" />
        </mxCell>
        <mxCell id="yCrrRUYa-Zq3f73UhCOz-33" value="&lt;font style=&quot;font-size: 7px; color: light-dark(rgb(0, 0, 0), rgb(255, 255, 255));&quot;&gt;PODs -&amp;gt; 8080&lt;/font&gt;" style="rounded=0;whiteSpace=wrap;html=1;align=left;verticalAlign=top;fillColor=light-dark(#D80073,#003300);fontColor=#ffffff;strokeColor=#A50040;" parent="1" vertex="1">
          <mxGeometry x="620" y="410" width="135" height="40" as="geometry" />
        </mxCell>
        <mxCell id="yCrrRUYa-Zq3f73UhCOz-34" value="&lt;font style=&quot;font-size: 8px;&quot;&gt;container - app java&lt;/font&gt;" style="rounded=0;whiteSpace=wrap;html=1;align=left;verticalAlign=middle;fillColor=light-dark(#FFFFFF,#330033);" parent="1" vertex="1">
          <mxGeometry x="671" y="425" width="78.5" height="20" as="geometry" />
        </mxCell>
        <mxCell id="OXkrzjksmOp5Ew8yW-Tl-1" value="&lt;font style=&quot;font-size: 7px; color: light-dark(rgb(0, 0, 0), rgb(255, 255, 255));&quot;&gt;PODs -&amp;gt; 8080&lt;/font&gt;" style="rounded=0;whiteSpace=wrap;html=1;align=left;verticalAlign=top;fillColor=light-dark(#D80073,#003300);fontColor=#ffffff;strokeColor=#A50040;" vertex="1" parent="1">
          <mxGeometry x="620" y="455" width="135" height="40" as="geometry" />
        </mxCell>
        <mxCell id="OXkrzjksmOp5Ew8yW-Tl-2" value="&lt;font style=&quot;font-size: 8px;&quot;&gt;container - app java&lt;/font&gt;" style="rounded=0;whiteSpace=wrap;html=1;align=left;verticalAlign=middle;fillColor=light-dark(#FFFFFF,#330033);" vertex="1" parent="1">
          <mxGeometry x="671" y="470" width="78.5" height="20" as="geometry" />
        </mxCell>
        <mxCell id="OXkrzjksmOp5Ew8yW-Tl-3" value="&lt;font style=&quot;font-size: 7px; color: light-dark(rgb(0, 0, 0), rgb(255, 255, 255));&quot;&gt;PODs -&amp;gt; 3306&lt;/font&gt;" style="rounded=0;whiteSpace=wrap;html=1;align=left;verticalAlign=top;fillColor=light-dark(#D80073,#003300);fontColor=#ffffff;strokeColor=#A50040;" vertex="1" parent="1">
          <mxGeometry x="619.5" y="530" width="135" height="40" as="geometry" />
        </mxCell>
        <mxCell id="OXkrzjksmOp5Ew8yW-Tl-4" value="&lt;font style=&quot;font-size: 8px;&quot;&gt;container - mariaDb&lt;/font&gt;" style="rounded=0;whiteSpace=wrap;html=1;align=left;verticalAlign=middle;fillColor=light-dark(#FFFFFF,#330033);" vertex="1" parent="1">
          <mxGeometry x="670.5" y="545" width="78.5" height="20" as="geometry" />
        </mxCell>
        <mxCell id="OXkrzjksmOp5Ew8yW-Tl-6" style="edgeStyle=orthogonalEdgeStyle;rounded=0;orthogonalLoop=1;jettySize=auto;html=1;" edge="1" parent="1" source="yCrrRUYa-Zq3f73UhCOz-26" target="yCrrRUYa-Zq3f73UhCOz-33">
          <mxGeometry relative="1" as="geometry" />
        </mxCell>
        <mxCell id="OXkrzjksmOp5Ew8yW-Tl-7" style="edgeStyle=orthogonalEdgeStyle;rounded=0;orthogonalLoop=1;jettySize=auto;html=1;entryX=0;entryY=0.5;entryDx=0;entryDy=0;" edge="1" parent="1" source="yCrrRUYa-Zq3f73UhCOz-26" target="OXkrzjksmOp5Ew8yW-Tl-1">
          <mxGeometry relative="1" as="geometry" />
        </mxCell>
        <mxCell id="OXkrzjksmOp5Ew8yW-Tl-8" value="&lt;font style=&quot;font-size: 9px;&quot;&gt;service C&lt;/font&gt;&lt;span style=&quot;font-size: 9px; background-color: transparent; color: light-dark(rgb(0, 0, 0), rgb(255, 255, 255));&quot;&gt;lusterIp -&amp;gt; 3306&amp;nbsp;&lt;/span&gt;" style="rounded=0;whiteSpace=wrap;html=1;" vertex="1" parent="1">
          <mxGeometry x="638.5" y="520" width="110.5" height="20" as="geometry" />
        </mxCell>
      </root>
    </mxGraphModel>
  </diagram>
</mxfile>
